<svg width="253" height="73" viewBox="0 0 253 73" fill="none" xmlns="http://www.w3.org/2000/svg">
<path d="M242.999 73H9.34611C4.20809 73 0 68.8915 0 63.875V9.12501C0 4.10854 4.20809 1.09443e-05 9.34611 1.09443e-05H242.999C248.137 1.09443e-05 252.345 4.10854 252.345 9.12501V63.875C252.345 68.8915 248.137 73 242.999 73Z" fill="#1E212B"/>
<path d="M242.999 1.46229C247.326 1.46229 250.847 4.90013 250.847 9.12501V63.875C250.847 68.0999 247.326 71.5377 242.999 71.5377H9.34611C5.01886 71.5377 1.49771 68.0999 1.49771 63.875V9.12501C1.49771 4.90013 5.01886 1.46229 9.34611 1.46229H242.999ZM242.999 1.09443e-05H9.34611C4.20809 1.09443e-05 0 4.10854 0 9.12501V63.875C0 68.8915 4.20809 73 9.34611 73H242.999C248.137 73 252.345 68.8915 252.345 63.875V9.12501C252.345 4.10854 248.137 1.09443e-05 242.999 1.09443e-05Z" fill="#A6A6A6"/>
<path d="M88.6342 18.695C88.6342 20.2188 88.1669 21.4393 87.2463 22.3495C86.1879 23.4286 84.8093 23.9715 83.12 23.9715C81.5055 23.9715 80.1269 23.4194 78.996 22.3313C77.8628 21.2272 77.2974 19.8721 77.2974 18.2501C77.2974 16.6282 77.8628 15.2731 78.996 14.1781C80.1269 13.0808 81.5055 12.5287 83.12 12.5287C83.9238 12.5287 84.6901 12.6907 85.4215 12.9918C86.1505 13.2952 86.7439 13.7059 87.1739 14.2123L86.1972 15.175C85.4472 14.3104 84.4261 13.8838 83.12 13.8838C81.9424 13.8838 80.9213 14.2853 80.0545 15.0952C79.197 15.9073 78.767 16.9589 78.767 18.2501C78.767 19.5413 79.197 20.6021 80.0545 21.4142C80.9213 22.2149 81.9424 22.6256 83.12 22.6256C84.37 22.6256 85.4215 22.2149 86.2509 21.4051C86.7977 20.869 87.1084 20.1299 87.1902 19.1854H83.12V17.8669H88.5501C88.6155 18.152 88.6342 18.4281 88.6342 18.695Z" fill="white" stroke="white" stroke-width="0.16" stroke-miterlimit="10"/>
<path d="M97.2485 14.1231H92.1478V17.5906H96.7461V18.9092H92.1478V22.3767H97.2485V23.7204H90.7039V12.7795H97.2485V14.1231Z" fill="white" stroke="white" stroke-width="0.16" stroke-miterlimit="10"/>
<path d="M103.328 23.7204H101.884V14.1231H98.7559V12.7795H106.459V14.1231H103.328V23.7204Z" fill="white" stroke="white" stroke-width="0.16" stroke-miterlimit="10"/>
<path d="M112.034 23.7204V12.7795H113.476V23.7204H112.034Z" fill="white" stroke="white" stroke-width="0.16" stroke-miterlimit="10"/>
<path d="M119.866 23.7204H118.434V14.1231H115.294V12.7795H123.007V14.1231H119.866V23.7204Z" fill="white" stroke="white" stroke-width="0.16" stroke-miterlimit="10"/>
<path d="M137.591 22.313C136.486 23.4194 135.116 23.9715 133.483 23.9715C131.841 23.9715 130.471 23.4194 129.366 22.313C128.263 21.2089 127.714 19.8538 127.714 18.2501C127.714 16.6464 128.263 15.2913 129.366 14.1872C130.471 13.0808 131.841 12.5287 133.483 12.5287C135.107 12.5287 136.476 13.0808 137.582 14.1963C138.694 15.3096 139.243 16.6555 139.243 18.2501C139.243 19.8538 138.694 21.2089 137.591 22.313ZM130.434 21.396C131.266 22.2149 132.278 22.6256 133.483 22.6256C134.68 22.6256 135.701 22.2149 136.523 21.396C137.353 20.577 137.773 19.5253 137.773 18.2501C137.773 16.9749 137.353 15.9232 136.523 15.1043C135.701 14.2853 134.68 13.8747 133.483 13.8747C132.278 13.8747 131.266 14.2853 130.434 15.1043C129.605 15.9232 129.184 16.9749 129.184 18.2501C129.184 19.5253 129.605 20.577 130.434 21.396Z" fill="white" stroke="white" stroke-width="0.16" stroke-miterlimit="10"/>
<path d="M141.269 23.7204V12.7795H143.021L148.47 21.2885H148.533L148.47 19.1852V12.7795H149.912V23.7204H148.407L142.701 14.7915H142.638L142.701 16.904V23.7204H141.269Z" fill="white" stroke="white" stroke-width="0.16" stroke-miterlimit="10"/>
<path d="M127.36 39.6981C122.969 39.6981 119.383 42.9603 119.383 47.4612C119.383 51.9256 122.969 55.222 127.36 55.222C131.759 55.222 135.346 51.9256 135.346 47.4612C135.346 42.9603 131.759 39.6981 127.36 39.6981ZM127.36 52.1651C124.951 52.1651 122.878 50.2238 122.878 47.4612C122.878 44.6621 124.951 42.755 127.36 42.755C129.769 42.755 131.85 44.6621 131.85 47.4612C131.85 50.2238 129.769 52.1651 127.36 52.1651ZM109.955 39.6981C105.555 39.6981 101.978 42.9603 101.978 47.4612C101.978 51.9256 105.555 55.222 109.955 55.222C114.352 55.222 117.932 51.9256 117.932 47.4612C117.932 42.9603 114.352 39.6981 109.955 39.6981ZM109.955 52.1651C107.544 52.1651 105.464 50.2238 105.464 47.4612C105.464 44.6621 107.544 42.755 109.955 42.755C112.364 42.755 114.436 44.6621 114.436 47.4612C114.436 50.2238 112.364 52.1651 109.955 52.1651ZM89.2439 42.0774V45.3761H97.312C97.076 47.2194 96.4451 48.5744 95.4778 49.5189C94.3002 50.6595 92.466 51.9256 89.2439 51.9256C84.2788 51.9256 80.3908 48.0133 80.3908 43.1656C80.3908 38.318 84.2788 34.4056 89.2439 34.4056C91.9286 34.4056 93.8819 35.4299 95.3236 36.7576L97.7045 34.433C95.6881 32.5532 93.0057 31.1092 89.2439 31.1092C82.4353 31.1092 76.7131 36.518 76.7131 43.1656C76.7131 49.8132 82.4353 55.222 89.2439 55.222C92.924 55.222 95.6881 54.0449 97.861 51.8366C100.088 49.6626 100.782 46.6057 100.782 44.1374C100.782 43.3709 100.716 42.666 100.599 42.0774H89.2439ZM173.934 44.6347C173.277 42.8987 171.251 39.6981 167.125 39.6981C163.036 39.6981 159.632 42.844 159.632 47.4612C159.632 51.8093 163.001 55.222 167.518 55.222C171.17 55.222 173.277 53.048 174.144 51.7819L171.434 50.0185C170.529 51.3097 169.298 52.1651 167.518 52.1651C165.749 52.1651 164.48 51.3735 163.667 49.8132L174.301 45.5176L173.934 44.6347ZM163.092 47.2194C163.001 44.2264 165.473 42.6934 167.244 42.6934C168.632 42.6934 169.81 43.3709 170.202 44.3404L163.092 47.2194ZM154.449 54.7498H157.945V31.9373H154.449V54.7498ZM148.725 41.4273H148.608C147.823 40.5194 146.325 39.6981 144.428 39.6981C140.447 39.6981 136.806 43.1109 136.806 47.4863C136.806 51.8366 140.447 55.222 144.428 55.222C146.325 55.222 147.823 54.3939 148.608 53.4586H148.725V54.5719C148.725 57.5398 147.101 59.1343 144.482 59.1343C142.346 59.1343 141.021 57.6287 140.475 56.3626L137.435 57.6013C138.311 59.659 140.631 62.1912 144.482 62.1912C148.58 62.1912 152.038 59.837 152.038 54.1088V40.1703H148.725V41.4273ZM144.727 52.1651C142.318 52.1651 140.302 50.1964 140.302 47.4863C140.302 44.7511 142.318 42.755 144.727 42.755C147.101 42.755 148.973 44.7511 148.973 47.4863C148.973 50.1964 147.101 52.1651 144.727 52.1651ZM190.299 31.9373H181.939V54.7498H185.425V46.1061H190.299C194.17 46.1061 197.967 43.3709 197.967 39.0206C197.967 34.6725 194.161 31.9373 190.299 31.9373ZM190.39 42.9329H185.425V35.1105H190.39C192.993 35.1105 194.479 37.2207 194.479 39.0206C194.479 40.7863 192.993 42.9329 190.39 42.9329ZM211.94 39.6548C209.421 39.6548 206.802 40.7406 205.724 43.1474L208.818 44.4134C209.484 43.1474 210.708 42.7367 212.003 42.7367C213.811 42.7367 215.645 43.7975 215.673 45.6704V45.9099C215.043 45.5541 213.692 45.0271 212.031 45.0271C208.699 45.0271 205.304 46.8179 205.304 50.1599C205.304 53.2168 208.033 55.1855 211.101 55.1855C213.447 55.1855 214.741 54.1521 215.554 52.9499H215.673V54.7133H219.04V45.9624C219.04 41.9178 215.947 39.6548 211.94 39.6548ZM211.519 52.156C210.379 52.156 208.79 51.6039 208.79 50.2238C208.79 48.4581 210.771 47.7806 212.486 47.7806C214.021 47.7806 214.741 48.1114 215.673 48.5471C215.4 50.6595 213.538 52.156 211.519 52.156ZM231.307 40.1544L227.3 50.0436H227.181L223.038 40.1544H219.279L225.503 53.9742L221.952 61.6643H225.594L235.186 40.1544H231.307ZM199.883 54.7498H203.379V31.9373H199.883V54.7498Z" fill="white"/>
<path d="M19.5053 13.7583C18.9562 14.3194 18.6384 15.1932 18.6384 16.3247V56.6845C18.6384 57.816 18.9562 58.6898 19.5053 59.251L19.6408 59.3741L42.8051 36.767V36.2331L19.6408 13.626L19.5053 13.7583Z" fill="url(#paint0_linear_79_744)"/>
<path d="M50.5177 44.3062L42.8048 36.7666V36.2328L50.527 28.6933L50.6999 28.7914L59.8451 33.8717C62.455 35.3135 62.455 37.686 59.8451 39.1368L50.6999 44.2081L50.5177 44.3062Z" fill="url(#paint1_linear_79_744)"/>
<path d="M50.7003 44.2082L42.8052 36.4999L19.5054 59.2508C20.3722 60.1405 21.7858 60.2477 23.3934 59.358L50.7003 44.2082Z" fill="url(#paint2_linear_79_744)"/>
<path d="M50.7003 28.7917L23.3934 13.6419C21.7858 12.7613 20.3722 12.8685 19.5054 13.7582L42.8052 36.5L50.7003 28.7917Z" fill="url(#paint3_linear_79_744)"/>
<defs>
<linearGradient id="paint0_linear_79_744" x1="40.7484" y1="57.1048" x2="10.1293" y2="25.7438" gradientUnits="userSpaceOnUse">
<stop stop-color="#00A0FF"/>
<stop offset="0.0066" stop-color="#00A1FF"/>
<stop offset="0.2601" stop-color="#00BEFF"/>
<stop offset="0.5122" stop-color="#00D2FF"/>
<stop offset="0.7604" stop-color="#00DFFF"/>
<stop offset="1" stop-color="#00E3FF"/>
</linearGradient>
<linearGradient id="paint1_linear_79_744" x1="63.2436" y1="36.4972" x2="18.0143" y2="36.4972" gradientUnits="userSpaceOnUse">
<stop stop-color="#FFE000"/>
<stop offset="0.4087" stop-color="#FFBD00"/>
<stop offset="0.7754" stop-color="#FFA500"/>
<stop offset="1" stop-color="#FF9C00"/>
</linearGradient>
<linearGradient id="paint2_linear_79_744" x1="46.4072" y1="32.3095" x2="4.88522" y2="-10.2186" gradientUnits="userSpaceOnUse">
<stop stop-color="#FF3A44"/>
<stop offset="1" stop-color="#C31162"/>
</linearGradient>
<linearGradient id="paint3_linear_79_744" x1="13.6403" y1="72.6784" x2="32.1817" y2="53.6879" gradientUnits="userSpaceOnUse">
<stop stop-color="#32A071"/>
<stop offset="0.0685" stop-color="#2DA771"/>
<stop offset="0.4762" stop-color="#15CF74"/>
<stop offset="0.8009" stop-color="#06E775"/>
<stop offset="1" stop-color="#00F076"/>
</linearGradient>
</defs>
</svg>
