<svg width="54" height="58" viewBox="0 0 54 58" fill="none" xmlns="http://www.w3.org/2000/svg">
<path d="M1.06872 0.893446C0.391766 1.58532 0 2.66251 0 4.05751V53.8163C0 55.2113 0.391766 56.2884 1.06872 56.9803L1.2358 57.1322L29.7946 29.2603V28.6022L1.2358 0.730325L1.06872 0.893446Z" fill="url(#paint0_linear_175_297)"/>
<path d="M39.3039 38.5553L29.7949 29.26V28.6019L39.3155 19.3065L39.5286 19.4275L50.8035 25.6909C54.0212 27.4684 54.0212 30.3934 50.8035 32.1822L39.5286 38.4344L39.3039 38.5553Z" fill="url(#paint1_linear_175_297)"/>
<path d="M39.5279 38.4345L29.7942 28.931L1.06836 56.9801C2.13708 58.077 3.87987 58.2092 5.86176 57.1123L39.5279 38.4345Z" fill="url(#paint2_linear_175_297)"/>
<path d="M39.5279 19.4278L5.86176 0.750031C3.87987 -0.335592 2.13708 -0.203408 1.06836 0.893466L29.7942 28.9313L39.5279 19.4278Z" fill="url(#paint3_linear_175_297)"/>
<defs>
<linearGradient id="paint0_linear_175_297" x1="27.2589" y1="54.3344" x2="-10.4907" y2="15.6702" gradientUnits="userSpaceOnUse">
<stop stop-color="#00A0FF"/>
<stop offset="0.0066" stop-color="#00A1FF"/>
<stop offset="0.2601" stop-color="#00BEFF"/>
<stop offset="0.5122" stop-color="#00D2FF"/>
<stop offset="0.7604" stop-color="#00DFFF"/>
<stop offset="1" stop-color="#00E3FF"/>
</linearGradient>
<linearGradient id="paint1_linear_175_297" x1="54.9935" y1="28.9278" x2="-0.76877" y2="28.9278" gradientUnits="userSpaceOnUse">
<stop stop-color="#FFE000"/>
<stop offset="0.4087" stop-color="#FFBD00"/>
<stop offset="0.7754" stop-color="#FFA500"/>
<stop offset="1" stop-color="#FF9C00"/>
</linearGradient>
<linearGradient id="paint2_linear_175_297" x1="34.235" y1="23.7648" x2="-16.9565" y2="-28.6671" gradientUnits="userSpaceOnUse">
<stop stop-color="#FF3A44"/>
<stop offset="1" stop-color="#C31162"/>
</linearGradient>
<linearGradient id="paint3_linear_175_297" x1="-6.16253" y1="73.5348" x2="16.6968" y2="50.1218" gradientUnits="userSpaceOnUse">
<stop stop-color="#32A071"/>
<stop offset="0.0685" stop-color="#2DA771"/>
<stop offset="0.4762" stop-color="#15CF74"/>
<stop offset="0.8009" stop-color="#06E775"/>
<stop offset="1" stop-color="#00F076"/>
</linearGradient>
</defs>
</svg>
