<svg width="29" height="25" viewBox="0 0 29 25" fill="none" xmlns="http://www.w3.org/2000/svg">
<path d="M7.41797 7.41699L11.3407 9.73623C13.6276 11.0884 14.5417 11.0884 16.8286 9.73623L20.7513 7.41699" stroke="#141B34" stroke-width="1.5" stroke-linecap="round" stroke-linejoin="round"/>
<path d="M0.771021 14.0508C0.858188 18.1382 0.901771 20.1819 2.40994 21.6958C3.91811 23.2097 6.01711 23.2625 10.2151 23.3679C12.8024 23.4329 15.3643 23.4329 17.9516 23.3679C22.1496 23.2625 24.2486 23.2097 25.7567 21.6958C27.2649 20.1819 27.3085 18.1382 27.3957 14.0508C27.4237 12.7366 27.4237 11.4301 27.3957 10.1159C27.3085 6.02848 27.2649 3.98479 25.7567 2.47088C24.2486 0.956975 22.1496 0.904236 17.9516 0.798758C15.3643 0.73375 12.8024 0.733747 10.2151 0.79875C6.01711 0.904218 3.91811 0.956953 2.40994 2.47086C0.901764 3.98477 0.858183 6.02846 0.771019 10.1158C0.742993 11.4301 0.742994 12.7366 0.771021 14.0508Z" stroke="#141B34" stroke-width="1.5" stroke-linejoin="round"/>
</svg>
