<svg xmlns="http://www.w3.org/2000/svg">
  <symbol id="googleplay" width="312" height="90" viewBox="0 0 312 90" fill="none">
    <path d="M299.588 90H11.5226C5.18805 90 0 84.9347 0 78.75V11.25C0 5.06532 5.18805 9.48061e-06 11.5226 9.48061e-06H299.588C305.922 9.48061e-06 311.11 5.06532 311.11 11.25V78.75C311.11 84.9347 305.922 90 299.588 90Z" fill="#1E212B"></path>
    <path d="M299.588 1.80282C304.923 1.80282 309.264 6.04126 309.264 11.25V78.75C309.264 83.9588 304.923 88.1972 299.588 88.1972H11.5226C6.18764 88.1972 1.8465 83.9588 1.8465 78.75V11.25C1.8465 6.04126 6.18764 1.80282 11.5226 1.80282H299.588ZM299.588 9.48061e-06H11.5226C5.18805 9.48061e-06 0 5.06532 0 11.25V78.75C0 84.9347 5.18805 90 11.5226 90H299.588C305.922 90 311.11 84.9347 311.11 78.75V11.25C311.11 5.06532 305.922 9.48061e-06 299.588 9.48061e-06Z" fill="#A6A6A6"></path>
    <path d="M109.276 23.0486C109.276 24.9273 108.7 26.432 107.565 27.5542C106.26 28.8845 104.56 29.5539 102.477 29.5539C100.487 29.5539 98.7873 28.8733 97.3931 27.5317C95.9959 26.1705 95.2988 24.4998 95.2988 22.5002C95.2988 20.5005 95.9959 18.8298 97.3931 17.4798C98.7873 16.127 100.487 15.4464 102.477 15.4464C103.468 15.4464 104.413 15.6461 105.315 16.0173C106.214 16.3914 106.945 16.8977 107.475 17.522L106.271 18.7089C105.347 17.643 104.088 17.117 102.477 17.117C101.026 17.117 99.7667 17.612 98.698 18.6105C97.6408 19.6117 97.1108 20.9083 97.1108 22.5002C97.1108 24.092 97.6408 25.3998 98.698 26.4011C99.7667 27.3883 101.026 27.8945 102.477 27.8945C104.019 27.8945 105.315 27.3883 106.337 26.3898C107.012 25.7289 107.395 24.8177 107.496 23.6533H102.477V22.0277H109.172C109.253 22.3792 109.276 22.7195 109.276 23.0486Z" fill="white" stroke="white" stroke-width="0.16" stroke-miterlimit="10"></path>
    <path d="M119.895 17.4121H113.606V21.6871H119.276V23.3127H113.606V27.5877H119.895V29.2442H111.826V15.7555H119.895V17.4121Z" fill="white" stroke="white" stroke-width="0.16" stroke-miterlimit="10"></path>
    <path d="M127.391 29.2442H125.611V17.4121H121.754V15.7555H131.251V17.4121H127.391V29.2442Z" fill="white" stroke="white" stroke-width="0.16" stroke-miterlimit="10"></path>
    <path d="M138.125 29.2442V15.7555H139.902V29.2442H138.125Z" fill="white" stroke="white" stroke-width="0.16" stroke-miterlimit="10"></path>
    <path d="M147.78 29.2442H146.014V17.4121H142.143V15.7555H151.652V17.4121H147.78V29.2442Z" fill="white" stroke="white" stroke-width="0.16" stroke-miterlimit="10"></path>
    <path d="M169.634 27.5092C168.271 28.8733 166.583 29.5539 164.569 29.5539C162.544 29.5539 160.856 28.8733 159.494 27.5092C158.134 26.148 157.457 24.4773 157.457 22.5002C157.457 20.523 158.134 18.8523 159.494 17.4911C160.856 16.127 162.544 15.4464 164.569 15.4464C166.571 15.4464 168.259 16.127 169.622 17.5023C170.993 18.8748 171.67 20.5342 171.67 22.5002C171.67 24.4773 170.993 26.148 169.634 27.5092ZM160.81 26.3786C161.836 27.3883 163.083 27.8945 164.569 27.8945C166.044 27.8945 167.303 27.3883 168.317 26.3786C169.34 25.3689 169.858 24.0723 169.858 22.5002C169.858 20.928 169.34 19.6314 168.317 18.6217C167.303 17.612 166.044 17.1058 164.569 17.1058C163.083 17.1058 161.836 17.612 160.81 18.6217C159.787 19.6314 159.269 20.928 159.269 22.5002C159.269 24.0723 159.787 25.3689 160.81 26.3786Z" fill="white" stroke="white" stroke-width="0.16" stroke-miterlimit="10"></path>
    <path d="M174.168 29.2442V15.7555H176.328L183.046 26.2461H183.124L183.046 23.653V15.7555H184.824V29.2442H182.968L175.934 18.2361H175.856L175.934 20.8405V29.2442H174.168Z" fill="white" stroke="white" stroke-width="0.16" stroke-miterlimit="10"></path>
    <path d="M157.019 48.9429C151.606 48.9429 147.185 52.9648 147.185 58.5138C147.185 64.0179 151.606 68.0819 157.019 68.0819C162.443 68.0819 166.865 64.0179 166.865 58.5138C166.865 52.9648 162.443 48.9429 157.019 48.9429ZM157.019 64.3132C154.049 64.3132 151.494 61.9198 151.494 58.5138C151.494 55.0629 154.049 52.7116 157.019 52.7116C159.989 52.7116 162.556 55.0629 162.556 58.5138C162.556 61.9198 159.989 64.3132 157.019 64.3132ZM135.561 48.9429C130.137 48.9429 125.727 52.9648 125.727 58.5138C125.727 64.0179 130.137 68.0819 135.561 68.0819C140.982 68.0819 145.396 64.0179 145.396 58.5138C145.396 52.9648 140.982 48.9429 135.561 48.9429ZM135.561 64.3132C132.588 64.3132 130.025 61.9198 130.025 58.5138C130.025 55.0629 132.588 52.7116 135.561 52.7116C138.531 52.7116 141.086 55.0629 141.086 58.5138C141.086 61.9198 138.531 64.3132 135.561 64.3132ZM110.027 51.8763V55.9432H119.974C119.683 58.2157 118.905 59.8863 117.713 61.0507C116.261 62.457 113.999 64.0179 110.027 64.0179C103.906 64.0179 99.1123 59.1945 99.1123 53.2179C99.1123 47.2413 103.906 42.4179 110.027 42.4179C113.337 42.4179 115.745 43.6807 117.522 45.3176L120.458 42.4516C117.972 40.1341 114.665 38.3538 110.027 38.3538C101.633 38.3538 94.5781 45.0223 94.5781 53.2179C94.5781 61.4135 101.633 68.0819 110.027 68.0819C114.564 68.0819 117.972 66.6307 120.651 63.9082C123.396 61.2279 124.252 57.4591 124.252 54.416C124.252 53.471 124.171 52.602 124.027 51.8763H110.027ZM214.439 55.0291C213.63 52.8888 211.132 48.9429 206.045 48.9429C201.004 48.9429 196.807 52.8213 196.807 58.5138C196.807 63.8745 200.961 68.0819 206.529 68.0819C211.031 68.0819 213.63 65.4016 214.698 63.8407L211.357 61.6666C210.242 63.2585 208.724 64.3132 206.529 64.3132C204.348 64.3132 202.784 63.3373 201.781 61.4135L214.891 56.1176L214.439 55.0291ZM201.073 58.2157C200.961 54.5257 204.008 52.6357 206.192 52.6357C207.903 52.6357 209.355 53.471 209.839 54.6663L201.073 58.2157ZM190.417 67.4998H194.727V39.3748H190.417V67.4998ZM183.36 51.0748H183.216C182.248 49.9554 180.401 48.9429 178.062 48.9429C173.154 48.9429 168.666 53.1504 168.666 58.5448C168.666 63.9082 173.154 68.0819 178.062 68.0819C180.401 68.0819 182.248 67.061 183.216 65.9079H183.36V67.2804C183.36 70.9394 181.358 72.9054 178.128 72.9054C175.496 72.9054 173.862 71.0491 173.188 69.4882L169.44 71.0154C170.521 73.5523 173.381 76.6741 178.128 76.6741C183.181 76.6741 187.444 73.7716 187.444 66.7094V49.5251H183.36V51.0748ZM178.431 64.3132C175.461 64.3132 172.975 61.886 172.975 58.5448C172.975 55.1726 175.461 52.7116 178.431 52.7116C181.358 52.7116 183.665 55.1726 183.665 58.5448C183.665 61.886 181.358 64.3132 178.431 64.3132ZM234.615 39.3748H224.308V67.4998H228.606V56.8432H234.615C239.388 56.8432 244.069 53.471 244.069 48.1076C244.069 42.747 239.377 39.3748 234.615 39.3748ZM234.727 52.931H228.606V43.287H234.727C237.937 43.287 239.769 45.8885 239.769 48.1076C239.769 50.2845 237.937 52.931 234.727 52.931ZM261.296 48.8895C258.19 48.8895 254.961 50.2282 253.633 53.1954L257.447 54.7563C258.268 53.1954 259.778 52.6891 261.373 52.6891C263.603 52.6891 265.864 53.997 265.899 56.306V56.6013C265.121 56.1626 263.456 55.5129 261.408 55.5129C257.3 55.5129 253.115 57.7207 253.115 61.841C253.115 65.6098 256.479 68.0369 260.262 68.0369C263.154 68.0369 264.75 66.7629 265.752 65.2807H265.899V67.4548H270.05V56.666C270.05 51.6795 266.236 48.8895 261.296 48.8895ZM260.777 64.302C259.371 64.302 257.413 63.6213 257.413 61.9198C257.413 59.7429 259.855 58.9076 261.97 58.9076C263.862 58.9076 264.75 59.3154 265.899 59.8526C265.562 62.4569 263.266 64.302 260.777 64.302ZM285.173 49.5054L280.233 61.6976H280.086L274.979 49.5054H270.344L278.018 66.5435L273.639 76.0244H278.13L289.955 49.5054H285.173ZM246.432 67.4998H250.741V39.3748H246.432V67.4998Z" fill="white"></path>
    <path d="M24.0472 16.9622C23.3703 17.6541 22.9785 18.7313 22.9785 20.1263V69.885C22.9785 71.28 23.3703 72.3572 24.0472 73.0491L24.2143 73.201L52.7731 45.3291V44.671L24.2143 16.7991L24.0472 16.9622Z" fill="url(#paint0_linear_49_278)"></path>
    <path d="M62.2825 54.624L52.7734 45.3287V44.6706L62.294 35.3753L62.5072 35.4962L73.782 41.7596C76.9997 43.5371 76.9997 46.4621 73.782 48.2509L62.5072 54.5031L62.2825 54.624Z" fill="url(#paint1_linear_49_278)"></path>
    <path d="M62.5064 54.5033L52.7727 44.9998L24.0469 73.0489C25.1156 74.1458 26.8584 74.2779 28.8403 73.1811L62.5064 54.5033Z" fill="url(#paint2_linear_49_278)"></path>
    <path d="M62.5064 35.4966L28.8403 16.8188C26.8584 15.7331 25.1156 15.8653 24.0469 16.9622L52.7727 45L62.5064 35.4966Z" fill="url(#paint3_linear_49_278)"></path>
    <defs>
      <linearGradient id="paint0_linear_49_278" x1="50.2374" y1="70.4032" x2="12.4878" y2="31.7389" gradientUnits="userSpaceOnUse">
        <stop stop-color="#00A0FF"></stop>
        <stop offset="0.0066" stop-color="#00A1FF"></stop>
        <stop offset="0.2601" stop-color="#00BEFF"></stop>
        <stop offset="0.5122" stop-color="#00D2FF"></stop>
        <stop offset="0.7604" stop-color="#00DFFF"></stop>
        <stop offset="1" stop-color="#00E3FF"></stop>
      </linearGradient>
      <linearGradient id="paint1_linear_49_278" x1="77.972" y1="44.9965" x2="22.2097" y2="44.9965" gradientUnits="userSpaceOnUse">
        <stop stop-color="#FFE000"></stop>
        <stop offset="0.4087" stop-color="#FFBD00"></stop>
        <stop offset="0.7754" stop-color="#FFA500"></stop>
        <stop offset="1" stop-color="#FF9C00"></stop>
      </linearGradient>
      <linearGradient id="paint2_linear_49_278" x1="57.2135" y1="39.8336" x2="6.02203" y2="-12.5983" gradientUnits="userSpaceOnUse">
        <stop stop-color="#FF3A44"></stop>
        <stop offset="1" stop-color="#C31162"></stop>
      </linearGradient>
      <linearGradient id="paint3_linear_49_278" x1="16.816" y1="89.6036" x2="39.6753" y2="66.1906" gradientUnits="userSpaceOnUse">
        <stop stop-color="#32A071"></stop>
        <stop offset="0.0685" stop-color="#2DA771"></stop>
        <stop offset="0.4762" stop-color="#15CF74"></stop>
        <stop offset="0.8009" stop-color="#06E775"></stop>
        <stop offset="1" stop-color="#00F076"></stop>
      </linearGradient>
    </defs>
  </symbol>
  <symbol id="close" width="25" height="25" viewBox="0 0 25 25" fill="none">
    <path d="M23.25 1.25L1.25149 23.2484M23.2485 23.25L1.25 1.25155" stroke="#F8F6F0" stroke-width="2.5" stroke-linecap="round" stroke-linejoin="round"/>
  </symbol>

  <symbol id="mail" width="29" height="25" viewBox="0 0 29 25" fill="none">
    <path d="M7.41797 7.41699L11.3407 9.73623C13.6276 11.0884 14.5417 11.0884 16.8286 9.73623L20.7513 7.41699" stroke="#141B34" stroke-width="1.5" stroke-linecap="round" stroke-linejoin="round"/>
    <path d="M0.771021 14.0508C0.858188 18.1382 0.901771 20.1819 2.40994 21.6958C3.91811 23.2097 6.01711 23.2625 10.2151 23.3679C12.8024 23.4329 15.3643 23.4329 17.9516 23.3679C22.1496 23.2625 24.2486 23.2097 25.7567 21.6958C27.2649 20.1819 27.3085 18.1382 27.3957 14.0508C27.4237 12.7366 27.4237 11.4301 27.3957 10.1159C27.3085 6.02848 27.2649 3.98479 25.7567 2.47088C24.2486 0.956975 22.1496 0.904236 17.9516 0.798758C15.3643 0.73375 12.8024 0.733747 10.2151 0.79875C6.01711 0.904218 3.91811 0.956953 2.40994 2.47086C0.901764 3.98477 0.858183 6.02846 0.771019 10.1158C0.742993 11.4301 0.742994 12.7366 0.771021 14.0508Z" stroke="#141B34" stroke-width="1.5" stroke-linejoin="round"/>
  </symbol>

  <symbol id="menu" width="40" height="37" viewBox="0 0 40 37" fill="none">
    <g filter="url(#filter0_d_2001_20)">
      <path d="M5.25 1.25L34.5833 1.25" stroke="#F2EFE9" stroke-width="2.5" stroke-linecap="round" stroke-linejoin="round"/>
      <path d="M5.25 14.0833L34.5833 14.0833" stroke="#F2EFE9" stroke-width="2.5" stroke-linecap="round" stroke-linejoin="round"/>
      <path d="M5.25 26.9167L34.5833 26.9167" stroke="#F2EFE9" stroke-width="2.5" stroke-linecap="round" stroke-linejoin="round"/>
    </g>
    <defs>
      <filter id="filter0_d_2001_20" x="0" y="0" width="39.834" height="36.1667" filterUnits="userSpaceOnUse" color-interpolation-filters="sRGB">
        <feFlood flood-opacity="0" result="BackgroundImageFix"/>
        <feColorMatrix in="SourceAlpha" type="matrix" values="0 0 0 0 0 0 0 0 0 0 0 0 0 0 0 0 0 0 127 0" result="hardAlpha"/>
        <feOffset dy="4"/>
        <feGaussianBlur stdDeviation="2"/>
        <feComposite in2="hardAlpha" operator="out"/>
        <feColorMatrix type="matrix" values="0 0 0 0 0 0 0 0 0 0 0 0 0 0 0 0 0 0 0.25 0"/>
        <feBlend mode="normal" in2="BackgroundImageFix" result="effect1_dropShadow_2001_20"/>
        <feBlend mode="normal" in="SourceGraphic" in2="effect1_dropShadow_2001_20" result="shape"/>
      </filter>
    </defs>
  </symbol>

  <symbol id="back" width="11" height="19" viewBox="0 0 11 19" fill="none">
    <path d="M9.24994 1.25009C9.24994 1.25009 1.25002 7.142 1.25 9.25015C1.24998 11.3583 9.25 17.2501 9.25 17.2501" stroke="#1E212B" stroke-width="2.5" stroke-linecap="round" stroke-linejoin="round"/>
  </symbol>

  <symbol id="up" width="21" height="12" viewBox="0 0 21 12" fill="none">
    <path d="M19.5 10.4999C19.5 10.4999 12.8716 1.50002 10.4999 1.5C8.12826 1.49998 1.5 10.5 1.5 10.5" stroke="#7B2D38" stroke-width="3" stroke-linecap="round" stroke-linejoin="round"/>
  </symbol>

  <symbol id="down" width="21" height="12" viewBox="0 0 21 12" fill="none">
    <path d="M19.5 1.50007C19.5 1.50007 12.8716 10.5 10.4999 10.5C8.12826 10.5 1.5 1.5 1.5 1.5" stroke="#7E2530" stroke-width="3" stroke-linecap="round" stroke-linejoin="round"/>
  </symbol>

</svg>